<svg xmlns="http://www.w3.org/2000/svg" viewBox="0 0 32 32" fill="none">
  <!-- Purple circle background -->
  <circle cx="16" cy="16" r="15" fill="#6c5ce7"/>
  <!-- 3x3 grid cells -->
  <rect x="6.5" y="6.5" width="5.5" height="5.5" rx="1.2" fill="white" opacity="0.95"/>
  <rect x="13.25" y="6.5" width="5.5" height="5.5" rx="1.2" fill="white" opacity="0.75"/>
  <rect x="20" y="6.5" width="5.5" height="5.5" rx="1.2" fill="white" opacity="0.95"/>
  <rect x="6.5" y="13.25" width="5.5" height="5.5" rx="1.2" fill="white" opacity="0.75"/>
  <rect x="13.25" y="13.25" width="5.5" height="5.5" rx="1.2" fill="white" opacity="0.55"/>
  <rect x="20" y="13.25" width="5.5" height="5.5" rx="1.2" fill="white" opacity="0.75"/>
  <rect x="6.5" y="20" width="5.5" height="5.5" rx="1.2" fill="white" opacity="0.95"/>
  <rect x="13.25" y="20" width="5.5" height="5.5" rx="1.2" fill="white" opacity="0.75"/>
  <rect x="20" y="20" width="5.5" height="5.5" rx="1.2" fill="white" opacity="0.95"/>
  <!-- Pill icon overlay in center cell -->
  <path d="M14.5 14.5 L17.5 17.5" stroke="#6c5ce7" stroke-width="1" stroke-linecap="round"/>
  <rect x="13.8" y="13.8" width="4.4" height="4.4" rx="2.2" stroke="#6c5ce7" stroke-width="0.7" fill="none" transform="rotate(45 16 16)"/>
</svg>
